<svg width="18" height="15" viewBox="0 0 18 15" fill="none" xmlns="http://www.w3.org/2000/svg">
<path d="M18 1.731C17.337 2.024 16.626 2.223 15.879 2.312C16.641 1.855 17.226 1.131 17.502 0.27C16.79 0.693 15.999 1 15.158 1.165C14.484 0.448 13.524 0 12.462 0C10.423 0 8.76901 1.652 8.76901 3.692C8.76901 3.981 8.80101 4.263 8.86501 4.534C5.79501 4.379 3.07401 2.909 1.25301 0.676C0.935007 1.221 0.753007 1.856 0.753007 2.531C0.753007 3.813 1.40501 4.943 2.39601 5.605C1.79101 5.586 1.22101 5.42 0.723007 5.144C0.723007 5.159 0.723007 5.174 0.723007 5.19C0.723007 6.979 1.99601 8.472 3.68501 8.811C3.37501 8.895 3.04901 8.94 2.71201 8.94C2.47501 8.94 2.24301 8.918 2.01801 8.874C2.48701 10.342 3.85201 11.409 5.46701 11.439C4.20401 12.43 2.61201 13.02 0.882007 13.02C0.583007 13.02 0.290007 13.002 0.00100708 12.967C1.63501 14.015 3.57601 14.626 5.66201 14.626C12.454 14.626 16.169 8.999 16.169 4.12C16.169 3.959 16.165 3.799 16.157 3.641C16.878 3.123 17.505 2.472 18 1.731Z" fill="white"/>
</svg>
