<svg width="17" height="15" viewBox="0 0 17 15" fill="none" xmlns="http://www.w3.org/2000/svg">
<path d="M8.052 11.454L5.352 8.933C5.139 8.734 4.794 8.734 4.581 8.933L0 13.201V13.782C0 14.324 0.475 14.765 1.055 14.765H15.82C16.4 14.765 16.875 14.324 16.875 13.782V13.201L12.294 8.931C12.08 8.734 11.734 8.734 11.523 8.931L8.823 11.452C8.61 11.652 8.265 11.652 8.052 11.454ZM13.791 7.536L16.49 10.057C16.702 10.256 16.875 10.18 16.875 9.889V4.465C16.875 4.173 16.702 4.098 16.49 4.297L13.791 6.818C13.577 7.016 13.577 7.337 13.791 7.536ZM1.055 0C0.475 0 0 0.443 0 0.984V1.161L8.011 8.665C8.223 8.864 8.567 8.864 8.779 8.665L16.875 1.072V0.984C16.875 0.443 16.4 0 15.82 0H1.055ZM0 4.465V9.889C0 10.18 0.173 10.256 0.385 10.057L3.084 7.536C3.298 7.337 3.298 7.016 3.084 6.817L0.385 4.297C0.173 4.098 0 4.173 0 4.465Z" fill="white"/>
</svg>
