<svg width="109" height="28" viewBox="0 0 109 28" fill="none" xmlns="http://www.w3.org/2000/svg">
<path fill-rule="evenodd" clip-rule="evenodd" d="M39.2984 0.628135H27.3126V21.2016H12.9293L26.8651 0.628135H5.70951L1.80661 6.43534H14.6172L0.609253 27.0097H29.1624L34.1934 19.614V6.43534H38.0383C42.4589 6.43534 45.5847 9.09534 45.5847 13.8189C45.5847 18.9616 42.0741 21.2016 37.9681 21.2016H34.9274V27.0097H39.2993C46.6379 27.0097 52.7427 21.238 52.7427 13.8189C52.7427 6.40173 46.6707 0.628135 39.2984 0.628135ZM68.8242 11.3213C68.8645 13.1861 69.0601 16.6441 69.2558 18.7432C68.7081 16.8019 67.6578 13.9645 66.2919 11.0871L61.1083 0.284668H55.0672V27.2925H60.3266L60.1703 15.75C60.131 13.4969 60.0935 10.3105 59.8969 8.09667C60.4053 9.76733 62.0435 13.5753 63.562 16.9559L68.2007 27.2925H73.8927V0.285601H68.7063L68.8242 11.3213ZM85.3982 6.97014C82.7498 6.97014 80.7595 7.82507 79.1249 9.6516C77.3705 11.5948 76.6291 13.9645 76.6291 17.5392C76.6291 23.7944 80.3344 27.8367 86.0591 27.8367C88.8667 27.8367 91.282 26.9425 93.5813 25.0787L91.5535 21.9697C89.9592 23.2895 88.2807 23.9503 86.4898 23.9503C83.7983 23.9503 82.2798 22.2021 82.2798 19.1296V18.9756H93.8162V17.7716C93.8162 13.6145 92.9961 10.9312 91.1641 9.06734C89.8806 7.74667 87.6974 6.97014 85.3982 6.97014ZM88.3977 15.1685H82.3575V15.0911C82.3575 12.3312 83.4903 10.7781 85.474 10.7781C86.5281 10.7781 87.2687 11.1655 87.7761 11.9439C88.2451 12.6812 88.3977 13.4577 88.3977 14.9352V15.1685ZM107.79 23.7552C106.856 24.0287 106.388 24.1444 105.92 24.1444C104.129 24.1444 103.66 23.4827 103.66 20.9571V10.9704H107.013L108.335 7.3948H103.66C103.66 5.37507 103.777 3.19853 103.969 1.372L98.6703 2.69453C98.4765 4.172 98.4765 5.45253 98.4765 7.39573H96.489V10.9713H98.4765V21.7747C98.4765 23.6012 98.5139 23.9876 98.8257 24.8453C99.4501 26.5916 101.557 27.7573 104.205 27.7573C105.571 27.7573 106.934 27.4857 108.455 26.8651L107.79 23.7552Z" fill="white"/>
</svg>
